<svg xmlns="http://www.w3.org/2000/svg" fill="none" viewBox="0 0 24 16"><g clip-path="url(#a)"><path fill="#DC3F4F" d="M21.82 16c1.204 0 2.18-.97 2.18-2.165V.003c-8 0-16-.027-24 0V16z"/><path fill="#57A863" d="M0 13.835C0 15.031.976 16 2.18 16H24v-4.084H0z"/><path fill="#DC3F4F" d="M2.184.003C.98.003.004.973.004 2.168v11.664c0 1.195.976 2.165 2.18 2.165h2.62V0z"/><path fill="#fff" d="M.686 6.47h.686v.68H.686zm0 2.042h.686v-.68H.686zm0-2.723h.686v-.68H.686zm0-4.084h.686v-.68H.686zm0 1.362h.686v-.681H.686zm0 6.807h.686v-.681H.686zm0-5.446h.686v-.68H.686zm0 10.891h.686v-.68H.686zm2.4-14.295V.004c-.456 0-.912-.006-1.368 0v1.02zM1.714 14.98V16h1.372v-1.021zM4.114.344v-.34H3.43v.34zm-2.4 14.295h1.372v-1.362H1.714zM.686 11.235h.686v-.68H.686zm0 1.362h.686v-.681H.686zm0 1.36h.686v-.68H.686zm1.028-9.529h1.372V3.067H1.714zM3.43 8.512h.685v-.68H3.43zm0-1.361h.685v-.68H3.43zm0 4.084h.685v-.68H3.43zm0-5.446h.685v-.68H3.43zm0 4.085h.685v-.681H3.43zm0-8.169h.685v-.68H3.43zm0 1.362h.685v-.681H3.43zm0 1.361h.685v-.68H3.43zm0 8.169h.685v-.681H3.43zM1.714 9.533h1.372V8.172H1.714zm0-1.701h1.372V6.47H1.714zm0 5.105h1.372v-1.362H1.714zm0-1.702h1.372V9.874H1.714zm0-5.105h1.372V4.768H1.714zm0-3.404h1.372V1.365H1.714zM3.43 13.958h.685v-.68H3.43zm0 1.361h.685v-.68H3.43z"/><path fill="#F1F1F1" d="M.69 0h.7v.34h-.7z"/></g><defs><clipPath id="a"><rect width="24" height="16" fill="#fff" rx="4"/></clipPath></defs></svg>