<svg xmlns="http://www.w3.org/2000/svg" fill="none" viewBox="0 0 24 16"><g clip-path="url(#a)"><path fill="#2A42AF" d="M23.997 0H0v16h23.996V0"/><path fill="#fff" d="M23.997 3.336.5 16h1.217L24 6.471z"/><path fill="#FF9017" d="M24 .5.165 16h.704L23.997 3.48z"/><path fill="#fff" d="m5.687 1.903-.14 2.254-.61-1.437.233 1.528-.943-1.235.617 1.41-1.238-.934.964 1.175-1.4-.604 1.224.902-1.522-.197 1.44.555-2.26.2 2.263.147-1.433.575 1.508-.197-1.22.878 1.416-.606-.963 1.188L4.85 6.6l-.61 1.379.983-1.199-.267 1.495.617-1.396.14 2.206.22-2.2.535 1.407-.202-1.515.977 1.202-.641-1.403 1.227.963-.977-1.205 1.46.593-1.292-.92 1.573.26-1.491-.573 2.341-.143-2.341-.21 1.543-.501-1.598.194 1.32-.899-1.488.582L7.91 3.506l-1.252.954.604-1.457-.974 1.235.21-1.545L5.92 4.15z"/></g><defs><clipPath id="a"><rect width="24" height="16" fill="#fff" rx="4"/></clipPath></defs></svg>