<svg xmlns="http://www.w3.org/2000/svg" fill="none" viewBox="0 0 24 16"><g clip-path="url(#a)"><path fill="#359139" d="M2.18 0H0v16h8.01V0z"/><path fill="#FFC700" d="M8.01 0v16h8.007V0z"/><path fill="#DC3F4F" d="M21.82 0h-5.813v16H24V0z"/><path fill="#359139" d="M10.49 10.553c-.254.167-.395.065-.312-.228l.298-1.082a.98.98 0 0 0-.264-.9L9.42 7.63c-.227-.204-.162-.368.144-.368h1.135a.81.81 0 0 0 .723-.52l.391-1.182c.096-.286.25-.286.343 0l.39 1.188a.86.86 0 0 0 .728.542l1.156.044c.305 0 .342.177.123.367l-.902.736a.94.94 0 0 0-.288.878l.254.967c.075.293-.069.395-.323.231l-.925-.599a.92.92 0 0 0-.923 0z"/></g><defs><clipPath id="a"><rect width="24" height="16" fill="#fff" rx="4"/></clipPath></defs></svg>